<?xml version="1.0" encoding="UTF-8"?>
<svg xmlns="http://www.w3.org/2000/svg" xmlns:xlink="http://www.w3.org/1999/xlink" version="1.1" id="Capa_1" x="0px" y="0px" viewBox="0 0 512 512" style="enable-background:new 0 0 512 512;" xml:space="preserve" width="512" height="512">
<g>
	<path id="face" style="fill:none;stroke:#000000;stroke-width:15;stroke-linecap:round;stroke-linejoin:round;stroke-miterlimit:10;" d="&#10;&#9;&#9;M256,63.613L256,63.613c-13.282,0-24.048-10.767-24.048-24.048v-8.016C231.952,18.267,242.718,7.5,256,7.5h0&#10;&#9;&#9;c13.282,0,24.048,10.767,24.048,24.048v8.016C280.048,52.846,269.282,63.613,256,63.613z"/>
	<path style="fill:none;stroke:#000000;stroke-width:15;stroke-linecap:round;stroke-linejoin:round;stroke-miterlimit:10;" d="&#10;&#9;&#9;M215.919,143.774l-35.711,99.991c-2.84,7.953-8.12,14.805-15.085,19.579l-15.318,10.5c-8.221,5.635-19.371,4.151-25.831-3.439h0&#10;&#9;&#9;c-6.42-7.542-4.534-19.044,3.959-24.14l23.858-14.315l12.277-41.983"/>
	<path style="fill:none;stroke:#000000;stroke-width:15;stroke-linecap:round;stroke-linejoin:round;stroke-miterlimit:10;" d="&#10;&#9;&#9;M296.081,239.968l-26.342,15.805C261.215,260.887,256,270.098,256,280.038v0.011l4.27,59.783&#10;&#9;&#9;c0.82,11.482,10.374,20.378,21.885,20.378h0c12.118,0,21.941-9.823,21.941-21.941"/>
	
		<polyline style="fill:none;stroke:#000000;stroke-width:15;stroke-linecap:round;stroke-linejoin:round;stroke-miterlimit:10;" points="&#10;&#9;&#9;304.097,472.435 269.801,463.411 291.999,358.948 &#9;"/>
	
		<line style="fill:none;stroke:#000000;stroke-width:15;stroke-linecap:round;stroke-linejoin:round;stroke-miterlimit:10;" x1="256" y1="167.823" x2="256" y2="95.677"/>
	
		<polyline style="fill:none;stroke:#000000;stroke-width:15;stroke-linecap:round;stroke-linejoin:round;stroke-miterlimit:10;" points="&#10;&#9;&#9;223.935,85.276 256,95.677 288.065,85.276 &#9;"/>
	
		<line style="fill:none;stroke:#000000;stroke-width:15;stroke-linecap:round;stroke-linejoin:round;stroke-miterlimit:10;" x1="247.984" y1="199.887" x2="264.016" y2="199.887"/>
	
		<line style="fill:none;stroke:#000000;stroke-width:15;stroke-linecap:round;stroke-linejoin:round;stroke-miterlimit:10;" x1="247.984" y1="167.823" x2="264.016" y2="167.823"/>
	<path style="fill:none;stroke:#000000;stroke-width:15;stroke-linecap:round;stroke-linejoin:round;stroke-miterlimit:10;" d="&#10;&#9;&#9;M272.032,57.422V68.09c0,6.901,4.416,13.027,10.962,15.21l21.24,7.08c9.958,3.319,17.66,11.302,20.622,21.372l35.353,120.201&#10;&#9;&#9;l23.858,14.315c8.493,5.096,10.38,16.598,3.959,24.14l0,0c-6.461,7.59-17.61,9.074-25.831,3.439l-15.318-10.5&#10;&#9;&#9;c-6.965-4.774-12.245-11.627-15.085-19.579l-35.711-99.991l0.926-10.616l-8.175,68.335c-0.506,4.231-0.164,8.52,1.007,12.618&#10;&#9;&#9;l5.623,19.679c5.729,20.053,8.636,40.806,8.636,61.662v6.271"/>
	
		<line style="fill:none;stroke:#000000;stroke-width:15;stroke-linecap:round;stroke-linejoin:round;stroke-miterlimit:10;" x1="151.79" y1="231.952" x2="175.277" y2="251.873"/>
	
		<line style="fill:none;stroke:#000000;stroke-width:15;stroke-linecap:round;stroke-linejoin:round;stroke-miterlimit:10;" x1="189.532" y1="184.081" x2="196.714" y2="186.257"/>
	
		<line style="fill:none;stroke:#000000;stroke-width:15;stroke-linecap:round;stroke-linejoin:round;stroke-miterlimit:10;" x1="360.21" y1="231.952" x2="336.723" y2="251.873"/>
	
		<line style="fill:none;stroke:#000000;stroke-width:15;stroke-linecap:round;stroke-linejoin:round;stroke-miterlimit:10;" x1="322.468" y1="184.081" x2="315.286" y2="186.257"/>
	<path style="fill:none;stroke:#000000;stroke-width:15;stroke-linecap:round;stroke-linejoin:round;stroke-miterlimit:10;" d="&#10;&#9;&#9;M229.794,139.901l-14.801-6.743l-41.821,26.095l13.971-47.502c2.962-10.07,10.664-18.052,20.622-21.372l21.24-7.08&#10;&#9;&#9;c6.547-2.182,10.962-8.309,10.962-15.21V57.422"/>
	
		<polyline style="fill:none;stroke:#000000;stroke-width:15;stroke-linecap:round;stroke-linejoin:round;stroke-miterlimit:10;" points="&#10;&#9;&#9;282.206,139.901 297.006,133.158 338.028,159.488 &#9;"/>
	<path style="fill:none;stroke:#000000;stroke-width:15;stroke-linecap:round;stroke-linejoin:round;stroke-miterlimit:10;" d="&#10;&#9;&#9;M215.919,239.968l26.342,15.805c8.523,5.114,13.738,14.325,13.738,24.264v0.011l-4.27,59.783&#10;&#9;&#9;c-0.82,11.482-10.374,20.378-21.885,20.378h0c-12.118,0-21.941-9.823-21.941-21.941"/>
	
		<polyline style="fill:none;stroke:#000000;stroke-width:15;stroke-linecap:round;stroke-linejoin:round;stroke-miterlimit:10;" points="&#10;&#9;&#9;207.903,472.435 242.199,463.411 220.001,358.948 &#9;"/>
	<path style="fill:none;stroke:#000000;stroke-width:15;stroke-linecap:round;stroke-linejoin:round;stroke-miterlimit:10;" d="&#10;&#9;&#9;M304.097,332.736v139.7l7.605,2.535c9.82,3.273,16.444,12.463,16.444,22.814v6.715H286.96c-8.411,0-15.392-6.5-15.992-14.89&#10;&#9;&#9;L256,280.048L241.031,489.61c-0.599,8.39-7.58,14.89-15.992,14.89h-41.185v-6.715c0-10.351,6.624-19.541,16.444-22.814l7.605-2.535&#10;&#9;&#9;V295.452c0-20.855,2.907-41.609,8.636-61.662l5.623-19.679c1.171-4.097,1.513-8.387,1.007-12.618l-8.175-68.335"/>
</g>
</svg>
